<?xml version="1.0" standalone="no"?>
<!DOCTYPE svg PUBLIC "-//W3C//DTD SVG 20010904//EN"
 "http://www.w3.org/TR/2001/REC-SVG-20010904/DTD/svg10.dtd">
<svg version="1.0" xmlns="http://www.w3.org/2000/svg"
 width="700.000000pt" height="700.000000pt" viewBox="0 0 700.000000 700.000000"
 preserveAspectRatio="xMidYMid meet">
<metadata>
Created by potrace 1.11, written by Peter Selinger 2001-2013
</metadata>
<g transform="translate(0.000000,700.000000) scale(0.100000,-0.100000)"
fill="#000000" stroke="none">
<path d="M3005 5819 c-22 -4 -67 -10 -100 -13 -33 -4 -87 -14 -120 -22 -33 -9
-71 -18 -85 -20 -65 -12 -248 -81 -365 -139 -565 -278 -982 -798 -1135 -1415
-16 -63 -28 -116 -26 -117 5 -5 567 -8 574 -3 4 3 25 50 46 105 35 90 80 182
146 300 52 93 159 234 247 325 122 128 241 217 378 285 155 76 254 106 405
120 30 3 80 8 110 12 348 41 711 -76 1088 -350 l84 -61 -371 -367 c-204 -202
-371 -369 -371 -371 0 -2 392 -4 870 -4 l870 0 0 875 c0 481 -3 871 -7 867 -8
-8 -333 -321 -497 -478 l-90 -87 -61 49 c-341 278 -715 449 -1110 507 -58 9
-433 10 -480 2z"/>
<path d="M1169 3493 c-2 -17 2 -1727 4 -1729 1 -2 50 43 107 98 58 56 168 161
245 236 77 74 161 154 186 179 l46 45 74 -64 c366 -315 826 -485 1334 -492
112 -2 260 6 330 17 17 3 50 9 75 12 50 8 47 8 148 29 175 38 481 160 627 251
22 13 52 31 67 40 l26 15 526 -528 c289 -290 601 -605 695 -700 l170 -173 216
216 217 217 -29 30 c-37 39 -302 308 -878 892 -258 262 -471 480 -473 485 -2
5 14 44 34 87 131 282 345 816 332 829 -2 2 -134 6 -293 10 l-290 5 -29 -77
c-161 -437 -457 -788 -804 -955 -137 -66 -258 -100 -402 -113 -36 -3 -85 -8
-110 -11 -50 -6 -224 -7 -255 0 -11 2 -42 7 -70 10 -166 23 -392 114 -595 239
-83 52 -230 157 -230 166 0 3 168 171 372 373 l373 368 -872 0 c-480 0 -873
-3 -874 -7z"/>
</g>
</svg>
