<?xml version="1.0" encoding="UTF-8" ?>
<!DOCTYPE svg PUBLIC "-//W3C//DTD SVG 1.1//EN" "http://www.w3.org/Graphics/SVG/1.1/DTD/svg11.dtd">
<svg width="691pt" height="691pt" viewBox="0 0 691 691" version="1.1" xmlns="http://www.w3.org/2000/svg">
<g id="#f8f9faff">
</g>
<g id="#96c4bdff">
<path fill="#96c4bd" opacity="1.00" d=" M 278.98 77.12 C 287.96 76.11 297.03 76.48 306.05 76.35 C 344.95 76.29 383.05 88.88 416.30 108.61 C 431.75 117.52 445.96 128.37 459.84 139.50 C 476.01 124.10 492.32 108.84 508.41 93.34 C 514.24 87.81 519.77 81.96 525.84 76.69 C 525.99 141.54 526.02 206.39 526.00 271.24 C 461.15 271.29 396.29 271.36 331.44 271.20 C 331.85 270.68 332.68 269.64 333.10 269.12 C 360.22 242.15 387.45 215.27 415.10 188.84 C 405.03 180.37 393.90 173.16 382.60 166.42 C 358.08 152.28 330.63 141.79 302.03 141.29 C 292.64 141.00 283.34 142.43 274.00 143.01 C 247.54 145.06 222.02 155.74 201.44 172.39 C 170.07 197.28 148.54 232.82 136.04 270.52 C 114.49 270.66 92.93 270.54 71.38 270.58 C 77.38 233.20 93.74 197.72 117.09 168.01 C 138.51 140.28 165.88 117.16 196.92 100.89 C 222.38 87.80 250.33 79.03 278.98 77.12 Z" />
</g>
<g id="#6aaca2ff">
<path fill="#6aaca2" opacity="1.00" d=" M 71.35 336.07 C 135.99 336.20 200.62 336.12 265.26 336.11 C 245.37 355.58 225.60 375.17 205.86 394.81 C 197.94 402.70 190.12 410.69 181.99 418.37 C 193.10 427.77 205.48 435.61 218.10 442.85 C 243.77 457.39 273.18 466.93 302.95 465.20 C 308.34 464.95 313.65 463.83 319.04 463.66 C 338.85 463.02 358.45 457.39 375.61 447.48 C 392.04 438.30 406.29 425.63 418.70 411.56 C 437.96 389.93 451.79 363.76 460.44 336.20 C 482.46 336.23 504.48 336.67 526.50 336.74 C 514.36 371.81 499.88 406.06 484.65 439.90 C 536.25 491.94 587.52 544.31 639.14 596.33 C 632.11 603.89 624.10 610.48 616.98 617.97 C 607.95 626.70 599.48 635.98 590.71 644.97 C 565.39 619.06 539.85 593.36 514.46 567.52 C 488.34 541.05 462.20 514.58 435.27 488.95 C 368.37 533.05 279.47 542.23 205.31 511.57 C 179.97 501.10 156.59 485.98 136.82 466.99 C 114.86 487.96 93.26 509.30 71.20 530.17 C 71.24 465.47 71.29 400.77 71.35 336.07 Z" />
</g>
</svg>
